<svg width="232" height="54" viewBox="0 0 232 54" fill="none" xmlns="http://www.w3.org/2000/svg">
<path d="M24.5 49C12.1 49 3 39.6 3 27C3 14.2 12.4 5 25.3 5C33.8 5 40.7 9.1 44.3 15.3L35.4 20.2C33.4 16.7 29.9 14.5 25.3 14.5C18.2 14.5 13.6 19.8 13.6 27C13.6 34.4 18.4 39.5 25.7 39.5C31.5 39.5 35.4 36.6 36.9 32.4H24.6V24H48.4V28.3C48.4 40.7 39.1 49 24.5 49Z" fill="currentColor"/>
<path d="M47 5L36.5 15.5M47 5H36M47 5V16" stroke="#7EB77F" stroke-width="3" stroke-linecap="round"/>
<text x="66" y="23" fill="currentColor" font-family="Arial, sans-serif" font-size="18" font-weight="900" letter-spacing="2.8">CECILIA</text>
<text x="66" y="43" fill="currentColor" font-family="Arial, sans-serif" font-size="11" font-weight="700" letter-spacing="2">GROWTH MUSEUM</text>
</svg>